<?xml version="1.0" encoding="iso-8859-1"?>
<!-- Uploaded to: SVG Repo, www.svgrepo.com, Generator: SVG Repo Mixer Tools -->
<svg height="800px" width="800px" version="1.1" id="Layer_1" xmlns="http://www.w3.org/2000/svg" xmlns:xlink="http://www.w3.org/1999/xlink" 
	 viewBox="0 0 511.999 511.999" xml:space="preserve">
<g>
	<circle style="fill:#FF5E8A;" cx="255.712" cy="456.137" r="45.665"/>
	<circle style="fill:#FF5E8A;" cx="255.712" cy="296.031" r="45.665"/>
	<circle style="fill:#FF5E8A;" cx="347.607" cy="296.031" r="45.665"/>
	<circle style="fill:#FF5E8A;" cx="164.389" cy="296.031" r="45.665"/>
	<circle style="fill:#FF5E8A;" cx="301.384" cy="376.084" r="45.665"/>
	<circle style="fill:#FF5E8A;" cx="210.051" cy="376.084" r="45.665"/>
	<circle style="fill:#FF5E8A;" cx="301.384" cy="215.978" r="45.665"/>
	<circle style="fill:#FF5E8A;" cx="210.051" cy="215.978" r="45.665"/>
</g>
<path style="fill:#C1DC3C;" d="M266.993,89.128c18.528,40.057,12.571,69.379,7.761,84.2c-3.749,11.55-11.849,14.812-21.348,11.595
	c-13.834-4.684-40.033-17.372-58.575-57.46c-20.44-44.192-0.224-98.538-0.224-98.538S246.553,44.937,266.993,89.128z"/>
<g>
	<path style="fill:#570029;" d="M403.474,296.028c0-29.443-22.902-53.623-51.825-55.702c3.582-7.365,5.596-15.627,5.596-24.353
		c0-30.803-25.06-55.864-55.864-55.864c-4.559,0-8.988,0.562-13.232,1.597c4.283-23.982,0.552-49.203-11.152-75.205
		c0.168-0.881,0.234-1.796,0.159-2.733c-0.156-1.969-3.322-48.408,41.647-63.926c5.325-1.838,8.152-7.643,6.314-12.968
		s-7.643-8.15-12.968-6.314c-31.497,10.868-44.902,33.473-50.601,50.522c-0.921,2.755-1.671,5.452-2.283,8.05
		c-25.23-28.426-59.829-39.39-61.655-39.953c-5.165-1.591-10.679,1.125-12.563,6.191c-0.885,2.382-21.444,58.875,0.527,106.376
		c4.994,10.796,10.869,20.429,17.528,28.813c-27.533,3.435-48.913,26.968-48.913,55.416c0,8.742,2.022,17.018,5.618,24.393
		c-28.666,2.34-51.282,26.402-51.282,55.66c0,29.259,22.616,53.32,51.281,55.661c-3.595,7.375-5.618,15.652-5.618,24.393
		c0,29.259,22.617,53.32,51.283,55.66c-3.595,7.375-5.618,15.653-5.618,24.394c0,30.802,25.06,55.863,55.863,55.863
		s55.863-25.06,55.863-55.863c0-8.742-2.022-17.019-5.618-24.394c28.667-2.34,51.283-26.402,51.283-55.66
		c0-8.725-2.014-16.988-5.596-24.353C380.572,349.652,403.474,325.472,403.474,296.028z M255.718,260.563
		c19.556,0,35.465,15.91,35.465,35.465c0,19.555-15.91,35.466-35.465,35.466s-35.465-15.911-35.465-35.466
		C220.253,276.473,236.162,260.563,255.718,260.563z M336.848,215.975c0,19.556-15.911,35.465-35.466,35.465
		c-19.555,0-35.465-15.91-35.465-35.465s15.91-35.466,35.465-35.466C320.937,180.509,336.848,196.419,336.848,215.975z
		 M201.194,42.427c14.91,6.598,43.303,22.361,56.542,50.984c11.47,24.796,14.518,48.471,9.105,70.479l-13.307-29.36
		c-2.324-5.129-8.368-7.403-13.5-5.079c-5.13,2.325-7.405,8.369-5.079,13.5l13.03,28.752c-18.342-8.867-33.083-25.142-43.896-48.519
		C190.634,94.094,196.843,59.192,201.194,42.427z M210.053,180.509c19.556,0,35.465,15.911,35.465,35.466
		s-15.91,35.465-35.465,35.465s-35.466-15.91-35.466-35.465S190.497,180.509,210.053,180.509z M128.923,296.028
		c0-19.556,15.91-35.465,35.465-35.465s35.466,15.91,35.466,35.465c0,19.555-15.911,35.466-35.466,35.466
		S128.923,315.584,128.923,296.028z M174.587,376.082c0-19.556,15.911-35.466,35.466-35.466s35.465,15.911,35.465,35.466
		c0,19.555-15.91,35.465-35.465,35.465S174.587,395.638,174.587,376.082z M255.718,491.602c-19.556,0-35.465-15.91-35.465-35.465
		c0-19.555,15.91-35.466,35.465-35.466s35.465,15.911,35.465,35.466C291.182,475.692,275.273,491.602,255.718,491.602z
		 M301.381,411.548c-19.556,0-35.465-15.91-35.465-35.465c0-19.555,15.91-35.466,35.465-35.466
		c19.555,0,35.466,15.911,35.466,35.466C336.847,395.638,320.937,411.548,301.381,411.548z M347.61,331.494
		c-19.556,0-35.466-15.911-35.466-35.466c0-19.555,15.911-35.465,35.466-35.465c19.555,0,35.465,15.91,35.465,35.465
		C383.074,315.584,367.166,331.494,347.61,331.494z"/>
	<path style="fill:#570029;" d="M220.646,111.379c1.707,3.765,5.416,5.992,9.296,5.992c1.407,0,2.838-0.294,4.204-0.913
		c5.13-2.325,7.405-8.369,5.079-13.5l-1.473-3.25c-2.326-5.129-8.368-7.404-13.5-5.079c-5.13,2.325-7.405,8.369-5.079,13.5
		L220.646,111.379z"/>
</g>
</svg>